<svg width="24" height="25" viewBox="0 0 24 25" fill="none" xmlns="http://www.w3.org/2000/svg">
<g id="Icon">
<mask id="mask0_104_311" style="mask-type:alpha" maskUnits="userSpaceOnUse" x="0" y="0" width="24" height="25">
<rect id="Bounding box" y="0.5" width="24" height="24" fill="#D9D9D9"/>
</mask>
<g mask="url(#mask0_104_311)">
<path id="check_box" d="M10.6 16.35L17.325 9.625L16.275 8.575L10.6 14.25L7.75 11.4L6.7 12.45L10.6 16.35ZM5.3 21C4.8 21 4.375 20.825 4.025 20.475C3.675 20.125 3.5 19.7 3.5 19.2V5.8C3.5 5.3 3.675 4.875 4.025 4.525C4.375 4.175 4.8 4 5.3 4H18.7C19.2 4 19.625 4.175 19.975 4.525C20.325 4.875 20.5 5.3 20.5 5.8V19.2C20.5 19.7 20.325 20.125 19.975 20.475C19.625 20.825 19.2 21 18.7 21H5.3Z" fill="#0017C1"/>
</g>
</g>
</svg>
