<svg width="16" height="16" viewBox="0 0 16 16" fill="none" xmlns="http://www.w3.org/2000/svg">
<circle cx="8" cy="8" r="8" fill="#666666"/>
<path d="M9.6066 11L8.9566 9.11H6.2666L5.6266 11H4.2666L6.8866 3.83H8.3466L10.9666 11H9.6066ZM8.0066 6.17C7.97993 6.07667 7.93993 5.95 7.8866 5.79C7.83327 5.63 7.77993 5.46667 7.7266 5.3C7.67994 5.12667 7.64327 4.98333 7.6166 4.87C7.58327 5.00333 7.53994 5.15667 7.4866 5.33C7.43994 5.50333 7.39327 5.66667 7.3466 5.82C7.3066 5.97333 7.27327 6.09 7.2466 6.17L6.6166 8.01H8.6266L8.0066 6.17Z" fill="white"/>
</svg>
