<svg width="17" height="17" viewBox="0 0 17 17" fill="none" xmlns="http://www.w3.org/2000/svg">
<g id="Globe">
<mask id="mask0_1225_8922" style="mask-type:alpha" maskUnits="userSpaceOnUse" x="0" y="0" width="25" height="25">
<rect id="Bounding box" x="0.5" y="0.375" width="24" height="24" fill="#D9D9D9"/>
</mask>
<g mask="url(#mask0_1225_8922)">
<path id="language" d="M8.49933 14.7083C7.63095 14.7083 6.81152 14.5419 6.04102 14.209C5.2705 13.8761 4.59849 13.4229 4.02498 12.8494C3.45148 12.2758 2.99828 11.6038 2.66538 10.8333C2.33247 10.0628 2.16602 9.24338 2.16602 8.375C2.16602 7.49979 2.33247 6.67864 2.66538 5.91155C2.99828 5.14447 3.45148 4.47417 4.02498 3.90065C4.59849 3.32715 5.2705 2.87395 6.04102 2.54105C6.81152 2.20814 7.63095 2.04169 8.49933 2.04169C9.37454 2.04169 10.1957 2.20814 10.9628 2.54105C11.7299 2.87395 12.4002 3.32715 12.9737 3.90065C13.5472 4.47417 14.0004 5.14447 14.3333 5.91155C14.6662 6.67864 14.8327 7.49979 14.8327 8.375C14.8327 9.24338 14.6662 10.0628 14.3333 10.8333C14.0004 11.6038 13.5472 12.2758 12.9737 12.8494C12.4002 13.4229 11.7299 13.8761 10.9628 14.209C10.1957 14.5419 9.37454 14.7083 8.49933 14.7083ZM8.49933 13.6942C8.83951 13.2429 9.12584 12.7878 9.35832 12.3288C9.59079 11.8699 9.78011 11.3681 9.92627 10.8237H7.0724C7.2271 11.3852 7.41855 11.8955 7.64677 12.3545C7.87497 12.8135 8.15915 13.26 8.49933 13.6942ZM7.20833 13.5109C6.95278 13.1442 6.72329 12.7274 6.51987 12.2603C6.31644 11.7932 6.15832 11.3143 6.0455 10.8237H3.78393C4.13608 11.516 4.6083 12.0977 5.20062 12.5686C5.79294 13.0395 6.46218 13.3536 7.20833 13.5109ZM9.79033 13.5109C10.5365 13.3536 11.2057 13.0395 11.798 12.5686C12.3904 12.0977 12.8626 11.516 13.2147 10.8237H10.9532C10.819 11.3186 10.6502 11.7996 10.4467 12.2667C10.2433 12.7338 10.0245 13.1485 9.79033 13.5109ZM3.36472 9.82374H5.84293C5.80105 9.57587 5.77072 9.33292 5.75192 9.09489C5.73312 8.85684 5.72372 8.61688 5.72372 8.375C5.72372 8.13313 5.73312 7.89317 5.75192 7.65512C5.77072 7.41709 5.80105 7.17414 5.84293 6.92627H3.36472C3.30062 7.15277 3.25147 7.38824 3.21728 7.63269C3.18309 7.87713 3.166 8.12457 3.166 8.375C3.166 8.62544 3.18309 8.87288 3.21728 9.11732C3.25147 9.36177 3.30062 9.59724 3.36472 9.82374ZM6.84292 9.82374H10.1557C10.1976 9.57587 10.228 9.33505 10.2468 9.10129C10.2656 8.86753 10.275 8.62544 10.275 8.375C10.275 8.12457 10.2656 7.88248 10.2468 7.64872C10.228 7.41495 10.1976 7.17414 10.1557 6.92627H6.84292C6.80104 7.17414 6.77069 7.41495 6.75188 7.64872C6.73308 7.88248 6.72368 8.12457 6.72368 8.375C6.72368 8.62544 6.73308 8.86753 6.75188 9.10129C6.77069 9.33505 6.80104 9.57587 6.84292 9.82374ZM11.1557 9.82374H13.634C13.698 9.59724 13.7472 9.36177 13.7814 9.11732C13.8156 8.87288 13.8327 8.62544 13.8327 8.375C13.8327 8.12457 13.8156 7.87713 13.7814 7.63269C13.7472 7.38824 13.698 7.15277 13.634 6.92627H11.1557C11.1976 7.17414 11.2279 7.41709 11.2467 7.65512C11.2655 7.89317 11.2749 8.13313 11.2749 8.375C11.2749 8.61688 11.2655 8.85684 11.2467 9.09489C11.2279 9.33292 11.1976 9.57587 11.1557 9.82374ZM10.9532 5.9263H13.2147C12.8583 5.22544 12.3893 4.6438 11.8077 4.1814C11.226 3.71901 10.5536 3.40278 9.79033 3.23269C10.0459 3.62072 10.2732 4.04508 10.4724 4.50577C10.6715 4.96646 10.8318 5.43997 10.9532 5.9263ZM7.0724 5.9263H9.92627C9.77157 5.36904 9.57691 4.85557 9.34228 4.3859C9.10767 3.91625 8.82669 3.47287 8.49933 3.05577C8.17198 3.47287 7.89099 3.91625 7.65638 4.3859C7.42176 4.85557 7.2271 5.36904 7.0724 5.9263ZM3.78393 5.9263H6.0455C6.16687 5.43997 6.32713 4.96646 6.52628 4.50577C6.72543 4.04508 6.95278 3.62072 7.20833 3.23269C6.44081 3.40278 5.7673 3.72009 5.1878 4.18462C4.60831 4.64915 4.14035 5.22972 3.78393 5.9263Z" fill="#1C1B1F"/>
</g>
</g>
</svg>
